<?xml version="1.0" encoding="utf-8"?>
<!-- Generator: Adobe Illustrator 23.0.1, SVG Export Plug-In . SVG Version: 6.00 Build 0)  -->
<svg version="1.1" id="Layer_1" xmlns="http://www.w3.org/2000/svg" xmlns:xlink="http://www.w3.org/1999/xlink" x="0px" y="0px"
	 viewBox="0 0 46.8 7.9" style="enable-background:new 0 0 46.8 7.9;" xml:space="preserve">
<style type="text/css">
	.st0{fill:url(#SVGID_1_);}
	.st1{fill:url(#SVGID_2_);}
	.st2{fill:url(#SVGID_3_);}
	.st3{fill:url(#SVGID_4_);}
	.st4{fill:url(#SVGID_5_);}
	.st5{fill:url(#SVGID_6_);}
	.st6{fill:url(#SVGID_7_);}
	.st7{opacity:0.2;fill:#00EFAC;enable-background:new    ;}
	.st8{opacity:0.4;fill:#00EFAC;enable-background:new    ;}
	.st9{fill:url(#SVGID_8_);}
</style>
<g>
	<g>
		
			<linearGradient id="SVGID_1_" gradientUnits="userSpaceOnUse" x1="14.2072" y1="0.3894" x2="14.352" y2="5.4604" gradientTransform="matrix(1 0 0 -1 0 7.89)">
			<stop  offset="0" style="stop-color:#17AEFF"/>
			<stop  offset="0.2834" style="stop-color:#0DC9DC"/>
			<stop  offset="0.5601" style="stop-color:#06DEC2"/>
			<stop  offset="0.8067" style="stop-color:#02EBB2"/>
			<stop  offset="0.9981" style="stop-color:#00EFAC"/>
		</linearGradient>
		<path class="st0" d="M12.5,5.9V2.6H16v0.6h-2.7v0.7h1.6v0.6h-1.6v0.8h2.8v0.6H12.5z"/>
		
			<linearGradient id="SVGID_2_" gradientUnits="userSpaceOnUse" x1="19.6527" y1="0.2338" x2="19.7976" y2="5.3048" gradientTransform="matrix(1 0 0 -1 0 7.89)">
			<stop  offset="0" style="stop-color:#17AEFF"/>
			<stop  offset="0.2834" style="stop-color:#0DC9DC"/>
			<stop  offset="0.5601" style="stop-color:#06DEC2"/>
			<stop  offset="0.8067" style="stop-color:#02EBB2"/>
			<stop  offset="0.9981" style="stop-color:#00EFAC"/>
		</linearGradient>
		<path class="st1" d="M17.7,5.9V2.6h0.6l2.8,2.2V2.6h0.7v3.3h-0.6l-2.8-2.2v2.2C18.4,5.9,17.7,5.9,17.7,5.9z"/>
		
			<linearGradient id="SVGID_3_" gradientUnits="userSpaceOnUse" x1="25.2981" y1="7.240395e-02" x2="25.443" y2="5.1435" gradientTransform="matrix(1 0 0 -1 0 7.89)">
			<stop  offset="0" style="stop-color:#17AEFF"/>
			<stop  offset="0.2834" style="stop-color:#0DC9DC"/>
			<stop  offset="0.5601" style="stop-color:#06DEC2"/>
			<stop  offset="0.8067" style="stop-color:#02EBB2"/>
			<stop  offset="0.9981" style="stop-color:#00EFAC"/>
		</linearGradient>
		<path class="st2" d="M23.7,5.9V2.6h0.8v2.7h2.6v0.6H23.7z"/>
		
			<linearGradient id="SVGID_4_" gradientUnits="userSpaceOnUse" x1="28.7952" y1="-2.751702e-02" x2="28.9401" y2="5.0436" gradientTransform="matrix(1 0 0 -1 0 7.89)">
			<stop  offset="0" style="stop-color:#17AEFF"/>
			<stop  offset="0.2834" style="stop-color:#0DC9DC"/>
			<stop  offset="0.5601" style="stop-color:#06DEC2"/>
			<stop  offset="0.8067" style="stop-color:#02EBB2"/>
			<stop  offset="0.9981" style="stop-color:#00EFAC"/>
		</linearGradient>
		<path class="st3" d="M28.5,5.9V2.6h0.8v3.3C29.3,5.9,28.5,5.9,28.5,5.9z"/>
		
			<linearGradient id="SVGID_5_" gradientUnits="userSpaceOnUse" x1="33.0918" y1="-0.1502" x2="33.2366" y2="4.9208" gradientTransform="matrix(1 0 0 -1 0 7.89)">
			<stop  offset="0" style="stop-color:#17AEFF"/>
			<stop  offset="0.2834" style="stop-color:#0DC9DC"/>
			<stop  offset="0.5601" style="stop-color:#06DEC2"/>
			<stop  offset="0.8067" style="stop-color:#02EBB2"/>
			<stop  offset="0.9981" style="stop-color:#00EFAC"/>
		</linearGradient>
		<path class="st4" d="M34.5,3.2H32v2.1h2.5V4.6h-1.3V4h2.1v1.1c0,0.3-0.1,0.5-0.2,0.6c-0.1,0.1-0.3,0.2-0.7,0.2H32
			c-0.3,0-0.6-0.1-0.7-0.2s-0.2-0.3-0.2-0.6V3.4c0-0.3,0.1-0.5,0.2-0.6s0.3-0.2,0.7-0.2h2.4c0.3,0,0.6,0.1,0.7,0.2
			c0.1,0.1,0.2,0.3,0.2,0.6v0.1l-0.8,0.1V3.2z"/>
		
			<linearGradient id="SVGID_6_" gradientUnits="userSpaceOnUse" x1="39.1368" y1="-0.323" x2="39.2816" y2="4.7481" gradientTransform="matrix(1 0 0 -1 0 7.89)">
			<stop  offset="0" style="stop-color:#17AEFF"/>
			<stop  offset="0.2834" style="stop-color:#0DC9DC"/>
			<stop  offset="0.5601" style="stop-color:#06DEC2"/>
			<stop  offset="0.8067" style="stop-color:#02EBB2"/>
			<stop  offset="0.9981" style="stop-color:#00EFAC"/>
		</linearGradient>
		<path class="st5" d="M37.2,5.9V2.6H38v1.3h2.5V2.6h0.8v3.3h-0.8V4.6H38V6L37.2,5.9L37.2,5.9z"/>
		
			<linearGradient id="SVGID_7_" gradientUnits="userSpaceOnUse" x1="44.6438" y1="-0.4803" x2="44.7886" y2="4.5907" gradientTransform="matrix(1 0 0 -1 0 7.89)">
			<stop  offset="0" style="stop-color:#17AEFF"/>
			<stop  offset="0.2834" style="stop-color:#0DC9DC"/>
			<stop  offset="0.5601" style="stop-color:#06DEC2"/>
			<stop  offset="0.8067" style="stop-color:#02EBB2"/>
			<stop  offset="0.9981" style="stop-color:#00EFAC"/>
		</linearGradient>
		<path class="st6" d="M45.2,3.2v2.7h-0.8V3.2h-1.6V2.6h4v0.6C46.8,3.2,45.2,3.2,45.2,3.2z"/>
	</g>
	<circle class="st7" cx="3.9" cy="3.9" r="3.9"/>
	<circle class="st8" cx="3.9" cy="3.9" r="2.6"/>
	
		<linearGradient id="SVGID_8_" gradientUnits="userSpaceOnUse" x1="3.9395" y1="1.876664e-02" x2="3.8874" y2="5.2539" gradientTransform="matrix(1 0 0 -1 0 7.89)">
		<stop  offset="1.869019e-04" style="stop-color:#17AEFF"/>
		<stop  offset="0.1013" style="stop-color:#14B7F4"/>
		<stop  offset="0.4936" style="stop-color:#09D5CD"/>
		<stop  offset="0.8068" style="stop-color:#02E8B5"/>
		<stop  offset="1" style="stop-color:#00EFAC"/>
	</linearGradient>
	<path class="st9" d="M5.2,3.9c0-0.7-0.6-1.3-1.3-1.3S2.6,3.2,2.6,3.9c0,0.6,0.4,1.1,1,1.3v2.7h0.7V5.2C4.8,5,5.2,4.5,5.2,3.9z"/>
</g>
</svg>
